<svg version="1.1" id="Camada_1" xmlns="http://www.w3.org/2000/svg" xmlns:xlink="http://www.w3.org/1999/xlink" x="0px"
  y="0px" viewBox="0 0 370 201.3" style="enable-background:new 0 0 370 201.3;" xml:space="preserve">
  <style type="text/css">
    .st0 {
      fill: none;
    }

    .st1 {
      fill: #FFFFFF;
    }

    .st2 {
      fill: #70B62C;
    }

    .st3 {
      fill: #669900;
    }

    .st4 {
      fill: #CAD31B;
    }

    .st5 {
      fill: #FFD51D;
    }

    .st6 {
      fill: #F29100;
    }

    .st7 {
      fill: #CC0019;
    }
  </style>
  <rect class="st0" width="370" height="201.3" />
  <g>
    <g>
      <path
        d="M53.2,148.6l-0.4-0.2c-0.5-0.3-1-0.1-1.4,0.3c-0.4,0.7-1,1.2-1.7,1.6c-1.2,0.7-2.9,0.8-4.2,0.2c-0.6-0.3-1.1-0.6-1.5-1    c-0.4-0.4-0.8-1-1-1.5c-0.3-0.6-0.4-1.2-0.4-1.9c0-0.7,0.1-1.3,0.4-1.9c0.3-0.6,0.6-1.1,1-1.6c0.4-0.4,1-0.8,1.5-1    c1.3-0.6,2.9-0.5,4.2,0.2c0.7,0.4,1.3,0.9,1.7,1.6c0.2,0.2,0.4,0.4,0.6,0.4c0.3,0.1,0.5,0,0.7-0.1l0.3-0.1    c0.3-0.1,0.5-0.4,0.6-0.7c0.1-0.3,0-0.6-0.1-0.7c-0.3-0.5-0.7-0.9-1.1-1.3c-0.4-0.4-0.9-0.8-1.4-1c-0.5-0.3-1.1-0.5-1.7-0.7    c-1.5-0.4-3.2-0.3-4.7,0.3c-0.9,0.4-1.7,0.9-2.3,1.6c-0.7,0.7-1.2,1.4-1.6,2.3c-0.4,0.9-0.6,1.8-0.6,2.8c0,1,0.2,2,0.6,2.8    c0.4,0.9,0.9,1.7,1.6,2.3c0.7,0.7,1.4,1.2,2.3,1.6c0.9,0.4,1.9,0.6,2.8,0.6c0.6,0,1.2-0.1,1.8-0.2c0.6-0.2,1.2-0.4,1.7-0.7    c0.5-0.3,1-0.6,1.4-1c0.4-0.4,0.8-0.9,1.1-1.3c0.2-0.2,0.3-0.5,0.2-0.8C53.6,148.9,53.4,148.6,53.2,148.6z" />
      <path
        d="M69.1,140.8c-0.7-0.7-1.4-1.2-2.3-1.6c-1.8-0.8-3.9-0.8-5.7,0c-0.9,0.4-1.7,0.9-2.3,1.6c-0.7,0.7-1.2,1.4-1.6,2.3    c-0.4,0.9-0.6,1.8-0.6,2.8c0,1,0.2,2,0.6,2.8c0.4,0.9,0.9,1.6,1.6,2.3c0.7,0.6,1.4,1.2,2.3,1.6c0.9,0.4,1.9,0.6,2.8,0.6    c1,0,1.9-0.2,2.8-0.6c0.9-0.4,1.7-0.9,2.3-1.6c0.7-0.7,1.2-1.4,1.6-2.3c0.4-0.9,0.6-1.8,0.6-2.8c0-1-0.2-2-0.6-2.8    C70.2,142.3,69.7,141.5,69.1,140.8z M68.8,146c0,0.7-0.1,1.3-0.4,1.9c-0.3,0.6-0.6,1.1-1.1,1.6c-0.4,0.4-1,0.8-1.5,1    c-1.2,0.5-2.6,0.5-3.8,0c-0.6-0.3-1.1-0.6-1.5-1c-0.4-0.4-0.8-1-1.1-1.5c-0.3-0.6-0.4-1.2-0.4-1.9c0-0.7,0.1-1.3,0.4-1.9    c0.3-0.6,0.6-1.1,1.1-1.6c0.4-0.4,0.9-0.8,1.5-1c0.6-0.3,1.2-0.4,1.9-0.4c0.7,0,1.3,0.1,1.9,0.4c0.6,0.3,1.1,0.6,1.5,1    c0.4,0.4,0.8,1,1.1,1.5C68.6,144.7,68.8,145.3,68.8,146z" />
      <path
        d="M88.2,138.9h-0.3c-0.5,0-0.9,0.2-1.1,0.6l-4.7,8l-4.7-7.9c-0.2-0.4-0.6-0.7-1.1-0.7H76c-0.3,0-0.5,0.1-0.7,0.3    c-0.1,0.1-0.3,0.4-0.3,0.7v12c0,0.3,0.1,0.5,0.3,0.7c0.2,0.2,0.5,0.3,0.7,0.3h0.4c0.3,0,0.5-0.1,0.7-0.3c0.2-0.2,0.3-0.5,0.3-0.7    v-7.7l3.6,6c0.2,0.3,0.5,0.6,1.2,0.6c0.5,0,0.9-0.2,1.1-0.6l3.6-6.1v7.8c0,0.3,0.1,0.5,0.3,0.7c0.2,0.2,0.4,0.3,0.7,0.3h0.4    c0.3,0,0.5-0.1,0.7-0.3c0.2-0.2,0.3-0.4,0.3-0.7v-12c0-0.3-0.1-0.5-0.3-0.7C88.8,139,88.5,138.9,88.2,138.9z" />
      <path
        d="M107.9,152.7c0.2-0.2,0.3-0.4,0.3-0.7v-12c0-0.3-0.1-0.5-0.3-0.7c-0.2-0.2-0.4-0.3-0.7-0.3h-0.3c-0.5,0-0.9,0.2-1.1,0.6    l-4.7,8l-4.7-7.9c-0.2-0.4-0.6-0.7-1.1-0.7H95c-0.3,0-0.5,0.1-0.7,0.3c-0.2,0.2-0.3,0.4-0.3,0.7v12c0,0.4,0.2,0.6,0.3,0.7    c0.2,0.2,0.4,0.3,0.7,0.3h0.4c0.3,0,0.5-0.1,0.7-0.3c0.2-0.2,0.3-0.5,0.3-0.7v-7.7l3.6,6c0.2,0.3,0.5,0.6,1.2,0.6    c0.5,0,0.9-0.2,1.1-0.6l3.6-6.1v7.8c0,0.3,0.1,0.5,0.3,0.7c0.2,0.2,0.4,0.3,0.7,0.3h0.4C107.5,153,107.7,152.9,107.9,152.7z" />
      <path
        d="M124.5,140.8c-0.7-0.7-1.4-1.2-2.3-1.6c-1.8-0.8-3.9-0.8-5.7,0c-0.9,0.4-1.7,0.9-2.3,1.6c-0.7,0.7-1.2,1.4-1.6,2.3    c-0.4,0.9-0.6,1.8-0.6,2.8c0,1,0.2,2,0.6,2.8c0.4,0.9,0.9,1.6,1.6,2.3c0.7,0.6,1.4,1.2,2.3,1.6c0.9,0.4,1.9,0.6,2.8,0.6    c1,0,2-0.2,2.8-0.6c0.9-0.4,1.7-0.9,2.3-1.6c0.7-0.7,1.2-1.4,1.6-2.3c0.4-0.9,0.6-1.8,0.6-2.8c0-1-0.2-2-0.6-2.8    C125.7,142.3,125.1,141.5,124.5,140.8z M124.2,146c0,0.7-0.1,1.3-0.4,1.9c-0.3,0.6-0.6,1.1-1.1,1.6c-0.4,0.4-0.9,0.8-1.5,1    c-1.2,0.5-2.6,0.5-3.8,0c-0.6-0.3-1.1-0.6-1.5-1c-0.4-0.4-0.8-1-1.1-1.5c-0.3-0.6-0.4-1.2-0.4-1.9c0-0.7,0.1-1.3,0.4-1.9    c0.3-0.6,0.6-1.1,1.1-1.6c0.4-0.4,1-0.8,1.5-1c0.6-0.3,1.2-0.4,1.9-0.4c0.7,0,1.3,0.1,1.9,0.4c0.6,0.3,1.1,0.6,1.5,1    c0.4,0.4,0.8,1,1.1,1.5C124,144.7,124.2,145.3,124.2,146z" />
      <path
        d="M131.5,153h0.4c0.3,0,0.5-0.1,0.7-0.3c0.2-0.2,0.3-0.4,0.3-0.7v-8.6l7.2,9.1c0.3,0.3,0.6,0.5,1,0.5h0.3    c0.3,0,0.5-0.1,0.7-0.3c0.2-0.2,0.3-0.5,0.3-0.7v-12c0-0.3-0.1-0.5-0.3-0.7c-0.2-0.2-0.4-0.3-0.7-0.3H141c-0.3,0-0.5,0.1-0.7,0.3    c-0.2,0.2-0.3,0.4-0.3,0.7v8.6l-7.2-9.1c-0.3-0.3-0.6-0.5-1-0.5h-0.3c-0.3,0-0.5,0.1-0.7,0.3c-0.2,0.2-0.3,0.4-0.3,0.7v12    c0,0.4,0.2,0.6,0.3,0.7C130.9,152.9,131.2,153,131.5,153z" />
      <path
        d="M166,138.9h-0.5c-0.5,0-0.9,0.3-1.1,0.7l-4.5,9.8l-4.4-9.8c-0.2-0.4-0.6-0.7-1.1-0.7H154c-0.3,0-0.6,0.2-0.8,0.5    c-0.1,0.3-0.1,0.6,0,0.8l5.6,12.1c0.1,0.2,0.2,0.3,0.4,0.5c0.2,0.1,0.4,0.2,0.6,0.2h0.4c0.2,0,0.4-0.1,0.7-0.2    c0.2-0.1,0.3-0.3,0.4-0.5l5.5-12c0.2-0.3,0.2-0.6,0-0.9C166.7,139.1,166.4,138.9,166,138.9z" />
      <path
        d="M171.6,151.6c0.5,0.5,1.2,0.9,1.9,1.2c0.7,0.3,1.6,0.4,2.5,0.4c0.9,0,1.8-0.1,2.5-0.4c0.7-0.3,1.4-0.7,1.9-1.2    c0.5-0.5,0.9-1.1,1.2-1.8c0.3-0.7,0.4-1.4,0.4-2.2V140c0-0.3-0.1-0.5-0.3-0.7c-0.2-0.2-0.4-0.3-0.7-0.3h-0.4    c-0.3,0-0.5,0.1-0.7,0.3c-0.2,0.2-0.3,0.4-0.3,0.7v7.5c0,0.5-0.1,1-0.2,1.4c-0.1,0.4-0.4,0.7-0.7,1c-0.3,0.3-0.7,0.5-1.1,0.7    c-0.9,0.3-2.3,0.3-3.2,0c-0.4-0.2-0.8-0.4-1.1-0.7c-0.3-0.3-0.5-0.6-0.7-1c-0.2-0.4-0.2-0.9-0.2-1.4V140c0-0.3-0.1-0.5-0.3-0.7    c-0.2-0.2-0.4-0.3-0.7-0.3H171c-0.3,0-0.5,0.1-0.7,0.3c-0.2,0.2-0.3,0.4-0.3,0.7v7.5c0,0.8,0.1,1.5,0.4,2.2    C170.7,150.4,171.1,151.1,171.6,151.6z" />
      <path
        d="M195.3,150.6H189V140c0-0.3-0.1-0.5-0.3-0.7c-0.2-0.2-0.4-0.3-0.7-0.3h-0.4c-0.3,0-0.5,0.1-0.7,0.3    c-0.2,0.2-0.3,0.4-0.3,0.7v12c0,0.3,0.1,0.5,0.3,0.7c0.2,0.2,0.4,0.3,0.7,0.3h7.6c0.3,0,0.5-0.1,0.7-0.3c0.2-0.2,0.3-0.5,0.3-0.7    v-0.4c0-0.3-0.1-0.5-0.3-0.7C195.8,150.7,195.5,150.6,195.3,150.6z" />
      <path
        d="M210.7,138.9h-0.4c-0.3,0-0.5,0.1-0.7,0.3c-0.2,0.2-0.3,0.4-0.3,0.7v8.6l-7.2-9.1c-0.3-0.3-0.6-0.5-1-0.5h-0.3    c-0.3,0-0.5,0.1-0.7,0.3c-0.1,0.1-0.3,0.4-0.3,0.7v12c0,0.3,0.1,0.5,0.3,0.7c0.2,0.2,0.5,0.3,0.7,0.3h0.4c0.3,0,0.5-0.1,0.7-0.3    c0.2-0.2,0.3-0.4,0.3-0.7v-8.6l7.2,9.1c0.3,0.3,0.6,0.5,1,0.5h0.3c0.3,0,0.5-0.1,0.7-0.3c0.2-0.2,0.3-0.5,0.3-0.7v-12    c0-0.3-0.1-0.5-0.3-0.7C211.3,139.1,211,138.9,210.7,138.9z" />
      <path
        d="M225.6,138.9h-8.1c-0.3,0-0.5,0.1-0.7,0.3c-0.2,0.2-0.3,0.4-0.3,0.7v12c0,0.3,0.1,0.5,0.3,0.7c0.2,0.2,0.4,0.3,0.7,0.3    h8.1c0.3,0,0.5-0.1,0.7-0.3c0.2-0.2,0.3-0.4,0.3-0.7v-0.4c0-0.3-0.1-0.5-0.3-0.7c-0.2-0.2-0.5-0.3-0.7-0.3h-6.7v-3.3h5.5    c0.4,0,0.6-0.2,0.7-0.3c0.2-0.2,0.3-0.5,0.3-0.7v-0.3c0-0.3-0.1-0.5-0.3-0.7c-0.2-0.2-0.5-0.3-0.7-0.3h-5.5v-3.5h6.7    c0.3,0,0.5-0.1,0.7-0.3c0.2-0.2,0.3-0.4,0.3-0.7V140c0-0.4-0.2-0.6-0.3-0.7C226.1,139.1,225.8,138.9,225.6,138.9z" />
      <path
        d="M239.3,148c0.7-0.4,1.2-0.9,1.7-1.5c0.5-0.8,0.8-1.7,0.8-2.7c0-0.6-0.1-1.3-0.3-1.8c-0.2-0.6-0.6-1.1-1-1.5    c-0.4-0.4-1-0.8-1.6-1c-0.6-0.3-1.3-0.4-2.1-0.4h-5.3c-0.3,0-0.5,0.1-0.7,0.3c-0.2,0.2-0.3,0.4-0.3,0.7v12c0,0.3,0.1,0.5,0.3,0.7    c0.2,0.2,0.4,0.3,0.7,0.3h0.4c0.3,0,0.5-0.1,0.7-0.3c0.2-0.2,0.3-0.4,0.3-0.7v-3.4l3.9,0l2.8,3.9c0.2,0.4,0.6,0.6,1.1,0.6h0.6    c0.3,0,0.6-0.2,0.8-0.5c0.1-0.3,0.1-0.6-0.1-0.9L239.3,148z M239.2,144.7c-0.1,0.3-0.3,0.5-0.5,0.7c-0.2,0.2-0.5,0.4-0.8,0.5    c-0.3,0.1-0.7,0.2-1.2,0.2h-3.8v-4.9h3.8c0.4,0,0.8,0.1,1.2,0.2c0.3,0.1,0.6,0.3,0.8,0.5c0.2,0.2,0.4,0.5,0.5,0.7    c0.1,0.3,0.2,0.6,0.2,0.9C239.4,144.1,239.4,144.4,239.2,144.7z" />
      <path
        d="M252.6,139.6c-0.1-0.2-0.2-0.3-0.4-0.4l0,0c-0.2-0.1-0.4-0.2-0.6-0.2h-0.5c-0.2,0-0.4,0.1-0.6,0.2    c-0.2,0.1-0.3,0.3-0.4,0.5l-5.5,12c-0.1,0.3-0.2,0.6,0,0.9c0.2,0.3,0.5,0.5,0.8,0.5h0.5c0.5,0,0.9-0.3,1.1-0.7l1-2.1h7l1,2.1    c0.2,0.4,0.6,0.7,1.1,0.7h0.5c0.3,0,0.6-0.2,0.8-0.5c0.2-0.3,0.2-0.6,0-0.8L252.6,139.6z M253.7,147.8H249l2.4-5.3L253.7,147.8z" />
      <path
        d="M271.2,145.7c0.2-0.2,0.4-0.5,0.6-0.7c0.4-0.6,0.6-1.3,0.6-2.1c0-0.5-0.1-1-0.3-1.5c-0.2-0.5-0.5-0.9-0.9-1.3    c-0.4-0.4-0.8-0.6-1.4-0.9c-0.5-0.2-1.2-0.3-1.9-0.3h-5.4c-0.3,0-0.5,0.1-0.7,0.3c-0.2,0.2-0.3,0.4-0.3,0.7v12    c0,0.3,0.1,0.5,0.3,0.7c0.2,0.2,0.4,0.3,0.7,0.3h5.9c0.6,0,1.2-0.1,1.8-0.3c0.5-0.2,1-0.5,1.4-0.9c0.4-0.4,0.7-0.8,0.9-1.3    c0.2-0.5,0.3-1,0.3-1.6c0-0.8-0.2-1.6-0.7-2.3C271.9,146.3,271.6,146,271.2,145.7z M269.9,147.6c0.2,0.2,0.3,0.4,0.4,0.6    c0.1,0.2,0.1,0.4,0.1,0.7c0,0.2,0,0.5-0.1,0.7c-0.1,0.2-0.2,0.4-0.4,0.6c-0.2,0.2-0.4,0.3-0.6,0.4c-0.3,0.1-0.6,0.2-0.9,0.2h-4.5    V147h4.5c0.3,0,0.6,0.1,0.9,0.2C269.5,147.3,269.7,147.4,269.9,147.6z M269.8,143.7c-0.1,0.2-0.2,0.4-0.4,0.6    c-0.1,0.2-0.3,0.3-0.5,0.4c-0.2,0.1-0.5,0.1-0.7,0.1h-4.2v-3.4h3.9c0.4,0,0.7,0.1,0.9,0.2c0.3,0.1,0.5,0.2,0.6,0.4    c0.2,0.2,0.3,0.3,0.4,0.5c0.1,0.2,0.1,0.4,0.1,0.7C269.9,143.2,269.9,143.5,269.8,143.7z" />
      <path
        d="M278.2,138.9h-0.4c-0.3,0-0.5,0.1-0.7,0.3c-0.2,0.2-0.3,0.4-0.3,0.7v12c0,0.3,0.1,0.5,0.3,0.7c0.2,0.2,0.4,0.3,0.7,0.3    h0.4c0.3,0,0.5-0.1,0.7-0.3c0.2-0.2,0.3-0.4,0.3-0.7v-12c0-0.3-0.1-0.5-0.3-0.7C278.7,139,278.5,138.9,278.2,138.9z" />
      <path
        d="M292.6,150.6h-6.2V140c0-0.3-0.1-0.5-0.3-0.7c-0.2-0.2-0.5-0.3-0.7-0.3H285c-0.3,0-0.5,0.1-0.7,0.3    c-0.2,0.2-0.3,0.4-0.3,0.7v12c0,0.4,0.2,0.6,0.3,0.7c0.2,0.2,0.4,0.3,0.7,0.3h7.6c0.3,0,0.5-0.1,0.7-0.3c0.2-0.2,0.3-0.4,0.3-0.7    v-0.4c0-0.3-0.1-0.5-0.3-0.7C293.1,150.7,292.9,150.6,292.6,150.6z" />
      <path
        d="M298.5,138.9h-0.4c-0.3,0-0.5,0.1-0.7,0.3c-0.1,0.1-0.3,0.4-0.3,0.7v12c0,0.3,0.1,0.5,0.3,0.7c0.2,0.2,0.5,0.3,0.7,0.3    h0.4c0.3,0,0.5-0.1,0.7-0.3c0.2-0.2,0.3-0.4,0.3-0.7v-12c0-0.3-0.1-0.5-0.3-0.7C299,139.1,298.8,138.9,298.5,138.9z" />
      <path
        d="M313.4,138.9h-9.5c-0.3,0-0.5,0.1-0.7,0.3c-0.1,0.1-0.3,0.4-0.3,0.7v0.4c0,0.3,0.1,0.5,0.3,0.7c0.2,0.2,0.5,0.3,0.7,0.3    h3.5V152c0,0.4,0.2,0.6,0.3,0.7c0.2,0.2,0.4,0.3,0.7,0.3h0.4c0.3,0,0.5-0.1,0.7-0.3c0.1-0.1,0.3-0.4,0.3-0.7v-10.6h3.5    c0.3,0,0.5-0.1,0.7-0.3c0.2-0.2,0.3-0.4,0.3-0.7V140c0-0.4-0.2-0.6-0.3-0.7C313.9,139.1,313.6,138.9,313.4,138.9z" />
      <path
        d="M329.7,139.4c-0.2-0.3-0.4-0.5-0.8-0.5h-0.6c-0.4,0-0.8,0.2-1.1,0.5l-4.3,5.9l-4.2-5.9c-0.2-0.4-0.6-0.6-1.1-0.6h-0.6    c-0.3,0-0.7,0.2-0.8,0.5c-0.1,0.3-0.1,0.6,0.1,0.9l5.4,7.5v4.1c0,0.3,0.1,0.5,0.3,0.7c0.2,0.2,0.4,0.3,0.7,0.3h0.4    c0.3,0,0.5-0.1,0.7-0.3c0.2-0.2,0.3-0.5,0.3-0.7l0-4.1l5.4-7.6C329.9,140,329.9,139.7,329.7,139.4z" />
    </g>
    <g>
      <path
        d="M94,169.1c-0.5-0.3-1-0.6-1.7-0.8c-0.6-0.2-1.1-0.4-1.6-0.5c-0.5-0.2-1-0.3-1.4-0.5c-0.4-0.1-0.8-0.3-1-0.5    c-0.3-0.2-0.5-0.3-0.6-0.5c-0.1-0.2-0.2-0.3-0.2-0.6c0-0.4,0.2-0.8,0.6-1.1c0.5-0.3,1.2-0.5,2.1-0.5c0.9,0,1.7,0.2,2.2,0.5    c0.5,0.3,0.7,0.6,0.8,1c0,0.2,0.1,0.5,0.3,0.6c0.2,0.2,0.5,0.3,0.8,0.3h0.4c0.3,0,0.6-0.2,0.8-0.5c0.2-0.3,0.2-0.6,0.2-0.7    c0-0.6-0.2-1.1-0.5-1.6c-0.3-0.5-0.7-0.9-1.2-1.2c-0.5-0.3-1-0.5-1.7-0.7c-1.2-0.3-2.8-0.3-4.1,0c-0.6,0.2-1.2,0.4-1.7,0.8    c-0.5,0.4-0.8,0.8-1.1,1.3c-0.3,0.5-0.4,1.1-0.4,1.7c0,0.7,0.2,1.3,0.5,1.9c0.3,0.5,0.7,0.9,1.3,1.2c0.5,0.3,1,0.6,1.6,0.8    c0.5,0.2,1.1,0.4,1.6,0.5c0.5,0.2,1,0.3,1.5,0.5c0.4,0.1,0.8,0.3,1.1,0.5c0.3,0.2,0.5,0.4,0.6,0.6c0.1,0.2,0.2,0.4,0.2,0.6    c0,0.4-0.2,0.8-0.6,1.1c-0.5,0.3-1.2,0.5-2.2,0.5c-0.5,0-1,0-1.4-0.1c-0.4-0.1-0.7-0.2-1-0.4c-0.3-0.1-0.5-0.3-0.6-0.5    c-0.1-0.2-0.2-0.3-0.2-0.5c-0.1-0.5-0.5-0.9-1.1-1l-0.2,0c-0.3,0-0.6,0.1-0.9,0.4c-0.3,0.3-0.3,0.7-0.3,0.8c0,0.6,0.2,1.1,0.6,1.6    c0.3,0.4,0.7,0.8,1.2,1.2c0.5,0.3,1.1,0.5,1.7,0.7c0.6,0.2,1.3,0.2,2.1,0.2c0.8,0,1.5-0.1,2.1-0.3c0.7-0.2,1.2-0.4,1.7-0.8    c0.5-0.3,0.9-0.8,1.2-1.3c0.3-0.5,0.4-1.1,0.4-1.7c0-0.7-0.2-1.4-0.6-1.9C95,169.9,94.6,169.5,94,169.1z" />
      <path
        d="M103.1,165.6c0.4-0.4,1-0.8,1.5-1c1.3-0.6,2.9-0.5,4.2,0.2c0.7,0.4,1.3,0.9,1.7,1.6c0.2,0.2,0.4,0.4,0.6,0.4    c0.2,0.1,0.5,0,0.7-0.1l0.3-0.2c0.3-0.1,0.5-0.4,0.6-0.7c0.1-0.4-0.1-0.7-0.1-0.7c-0.3-0.5-0.7-0.9-1.1-1.3    c-0.4-0.4-0.9-0.8-1.4-1c-0.5-0.3-1.1-0.5-1.7-0.7c-1.5-0.4-3.2-0.3-4.7,0.3c-0.9,0.4-1.7,0.9-2.3,1.6c-0.7,0.7-1.2,1.4-1.6,2.3    c-0.4,0.9-0.6,1.8-0.6,2.8c0,1,0.2,2,0.6,2.8c0.4,0.9,0.9,1.6,1.6,2.3c0.7,0.6,1.4,1.2,2.3,1.6c0.9,0.4,1.9,0.6,2.8,0.6    c0.6,0,1.2-0.1,1.8-0.2c0.6-0.2,1.2-0.4,1.7-0.7c0.5-0.3,1-0.6,1.4-1c0.4-0.4,0.8-0.9,1.1-1.3c0.2-0.2,0.3-0.5,0.2-0.8    c-0.1-0.3-0.3-0.6-0.5-0.7l-0.4-0.2c-0.5-0.3-1-0.1-1.4,0.3c-0.4,0.7-1,1.2-1.7,1.6c-1.2,0.7-2.9,0.8-4.2,0.2    c-0.6-0.3-1.1-0.6-1.5-1c-0.4-0.4-0.8-1-1.1-1.5c-0.3-0.6-0.4-1.2-0.4-1.9c0-0.7,0.1-1.3,0.4-1.9    C102.3,166.6,102.6,166,103.1,165.6z" />
      <path
        d="M128.4,163.9c-0.7-0.7-1.4-1.2-2.3-1.6c-1.8-0.8-3.9-0.8-5.7,0c-0.9,0.4-1.7,0.9-2.3,1.6c-0.7,0.7-1.2,1.4-1.6,2.3    c-0.4,0.9-0.6,1.8-0.6,2.8c0,1,0.2,2,0.6,2.8c0.4,0.9,0.9,1.7,1.6,2.3c0.7,0.7,1.4,1.2,2.3,1.6c0.9,0.4,1.9,0.6,2.8,0.6    c1,0,2-0.2,2.8-0.6c0.9-0.4,1.7-0.9,2.3-1.6c0.7-0.7,1.2-1.4,1.6-2.3c0.4-0.9,0.6-1.8,0.6-2.8c0-1-0.2-2-0.6-2.8    C129.6,165.3,129.1,164.5,128.4,163.9z M128.1,169c0,0.7-0.1,1.3-0.4,1.9c-0.3,0.6-0.6,1.1-1,1.5c-0.4,0.4-1,0.8-1.5,1    c-1.2,0.5-2.6,0.5-3.8,0c-0.6-0.3-1.1-0.6-1.5-1c-0.4-0.4-0.8-1-1-1.5c-0.3-0.6-0.4-1.2-0.4-1.9c0-0.7,0.1-1.3,0.4-1.9    c0.3-0.6,0.6-1.1,1-1.5c0.4-0.4,1-0.8,1.5-1c0.6-0.3,1.2-0.4,1.9-0.4c0.7,0,1.3,0.1,1.9,0.4c0.6,0.3,1.1,0.6,1.5,1    c0.4,0.4,0.8,1,1,1.5C128,167.7,128.1,168.4,128.1,169z" />
      <path
        d="M143.5,171c0.7-0.4,1.2-0.9,1.7-1.5c0.5-0.8,0.8-1.7,0.8-2.7c0-0.6-0.1-1.3-0.3-1.8c-0.2-0.6-0.6-1.1-1-1.5    c-0.4-0.4-1-0.8-1.6-1c-0.6-0.3-1.3-0.4-2.1-0.4h-5.3c-0.3,0-0.5,0.1-0.7,0.3c-0.1,0.1-0.3,0.4-0.3,0.7v12c0,0.4,0.2,0.6,0.3,0.7    c0.2,0.2,0.4,0.3,0.7,0.3h0.4c0.3,0,0.5-0.1,0.7-0.3c0.2-0.2,0.3-0.5,0.3-0.7v-3.4l3.9,0l2.8,3.9c0.2,0.4,0.6,0.6,1.1,0.6h0.6    c0.3,0,0.6-0.2,0.8-0.5c0.1-0.2,0.1-0.5-0.1-0.9L143.5,171z M143.4,167.7c-0.1,0.3-0.3,0.5-0.5,0.8c-0.2,0.2-0.5,0.4-0.8,0.5    c-0.3,0.1-0.7,0.2-1.2,0.2h-3.8v-4.9h3.8c0.4,0,0.8,0.1,1.2,0.2c0.3,0.1,0.6,0.3,0.8,0.5c0.2,0.2,0.4,0.5,0.5,0.7    c0.1,0.3,0.2,0.6,0.2,0.9C143.6,167.1,143.5,167.4,143.4,167.7z" />
      <path
        d="M151.8,162h-0.4c-0.3,0-0.5,0.1-0.7,0.3c-0.2,0.2-0.3,0.4-0.3,0.7v12c0,0.3,0.1,0.5,0.3,0.7c0.2,0.2,0.5,0.3,0.7,0.3h0.4    c0.3,0,0.5-0.1,0.7-0.3c0.2-0.2,0.3-0.4,0.3-0.7v-12c0-0.3-0.1-0.5-0.3-0.7C152.3,162.1,152.1,162,151.8,162z" />
      <path
        d="M168.8,162h-0.4c-0.3,0-0.5,0.1-0.7,0.3c-0.2,0.2-0.3,0.4-0.3,0.7v8.6l-7.2-9.1c-0.3-0.3-0.6-0.5-1-0.5h-0.3    c-0.3,0-0.5,0.1-0.7,0.3c-0.2,0.2-0.3,0.4-0.3,0.7v12c0,0.3,0.1,0.5,0.3,0.7c0.2,0.2,0.4,0.3,0.7,0.3h0.4c0.3,0,0.5-0.1,0.7-0.3    c0.2-0.2,0.3-0.4,0.3-0.7v-8.6l7.2,9.1c0.3,0.3,0.6,0.5,1,0.5h0.3c0.3,0,0.5-0.1,0.7-0.3c0.2-0.2,0.3-0.4,0.3-0.7v-12    c0-0.3-0.1-0.5-0.3-0.7C169.4,162.1,169.1,162,168.8,162z" />
      <path
        d="M186.7,168.1h-4.9c-0.3,0-0.5,0.1-0.7,0.3c-0.2,0.2-0.3,0.5-0.3,0.7v0.3c0,0.3,0.1,0.5,0.3,0.7c0.2,0.2,0.4,0.3,0.7,0.3    h3.6l0,1.3c-0.4,0.7-1,1.2-1.7,1.6c-1.2,0.7-2.9,0.8-4.2,0.2c-0.6-0.3-1.1-0.6-1.5-1c-0.4-0.4-0.8-1-1.1-1.5    c-0.3-0.6-0.4-1.2-0.4-1.9c0-0.7,0.1-1.3,0.4-1.9c0.3-0.6,0.6-1.1,1.1-1.6c0.4-0.4,1-0.8,1.5-1c1.2-0.5,2.8-0.5,4,0.1    c0.6,0.3,1.2,0.7,1.6,1.3c0.2,0.2,0.4,0.3,0.7,0.4c0.3,0,0.6,0,0.7-0.2l0.3-0.2c0.2-0.2,0.4-0.4,0.4-0.7c0.1-0.3,0-0.6-0.2-0.8    c-0.7-0.8-1.5-1.5-2.5-2c-1.8-0.9-4.1-1-6-0.2c-0.9,0.4-1.7,0.9-2.3,1.6c-0.7,0.7-1.2,1.4-1.6,2.3c-0.4,0.9-0.6,1.8-0.6,2.8    c0,1,0.2,2,0.6,2.8c0.4,0.9,0.9,1.6,1.6,2.3c0.7,0.6,1.4,1.2,2.3,1.6c0.9,0.4,1.8,0.6,2.8,0.6c1.1,0,2.1-0.2,3-0.7    c0.4-0.2,0.8-0.4,1.1-0.7v0.1c0,0.4,0.2,0.6,0.3,0.7c0.2,0.2,0.4,0.3,0.7,0.3h0.2c0.3,0,0.5-0.1,0.7-0.3c0.2-0.2,0.3-0.4,0.3-0.7    v-5.9c0-0.3-0.1-0.5-0.3-0.7C187.2,168.2,187,168.1,186.7,168.1z" />
      <path
        d="M208.5,169.1L208.5,169.1c-0.5-0.3-1.1-0.6-1.7-0.8c-0.6-0.2-1.1-0.4-1.6-0.5c-0.5-0.2-1-0.3-1.4-0.5    c-0.4-0.1-0.8-0.3-1.1-0.5c-0.3-0.2-0.5-0.3-0.6-0.5c-0.1-0.1-0.2-0.3-0.2-0.6c0-0.4,0.2-0.8,0.6-1.1c0.5-0.3,1.2-0.5,2.1-0.5    c0.9,0,1.7,0.2,2.2,0.5c0.5,0.3,0.7,0.6,0.8,1c0,0.2,0.1,0.5,0.3,0.6c0.2,0.2,0.5,0.3,0.8,0.3h0.4c0.3,0,0.6-0.2,0.8-0.4    c0.2-0.3,0.2-0.6,0.2-0.7c0-0.6-0.2-1.1-0.5-1.6c-0.3-0.5-0.7-0.9-1.2-1.2c-0.5-0.3-1-0.5-1.7-0.7c-1.2-0.3-2.8-0.3-4.1,0    c-0.6,0.2-1.2,0.4-1.7,0.8c-0.5,0.4-0.8,0.8-1.1,1.3c-0.3,0.5-0.4,1.1-0.4,1.7c0,0.7,0.2,1.4,0.5,1.9c0.3,0.5,0.7,0.9,1.3,1.2    c0.5,0.3,1,0.6,1.6,0.8c0.5,0.2,1.1,0.4,1.6,0.5c0.5,0.2,1,0.3,1.5,0.5c0.4,0.1,0.8,0.3,1.1,0.5c0.3,0.2,0.5,0.3,0.6,0.6    c0.1,0.2,0.2,0.4,0.2,0.6c0,0.4-0.2,0.8-0.6,1.1c-0.5,0.3-1.2,0.5-2.2,0.5c-0.5,0-1,0-1.4-0.1c-0.4-0.1-0.7-0.2-1-0.4    c-0.3-0.1-0.5-0.3-0.6-0.5c-0.1-0.2-0.2-0.3-0.2-0.5c-0.1-0.5-0.4-0.9-1.1-1l-0.2,0c-0.3,0-0.6,0.1-0.9,0.4    c-0.2,0.2-0.3,0.5-0.3,0.8c0,0.6,0.2,1.1,0.6,1.6c0.3,0.5,0.7,0.8,1.2,1.2c0.5,0.3,1.1,0.5,1.7,0.7c0.6,0.2,1.3,0.2,2.1,0.2    c0.8,0,1.5-0.1,2.1-0.3c0.7-0.2,1.2-0.4,1.7-0.8c0.5-0.3,0.9-0.8,1.2-1.3c0.3-0.5,0.4-1.1,0.4-1.7c0-0.8-0.2-1.4-0.6-1.9    C209.5,169.9,209,169.5,208.5,169.1z" />
      <path
        d="M224.9,162h-0.6c-0.4,0-0.8,0.2-1,0.6l-4.3,5.9l-4.2-5.9c-0.2-0.4-0.6-0.6-1.1-0.6h-0.6c-0.3,0-0.6,0.2-0.8,0.5    c-0.1,0.3-0.1,0.6,0.1,0.9l5.4,7.5v4.1c0,0.3,0.1,0.5,0.3,0.7c0.2,0.2,0.5,0.3,0.7,0.3h0.4c0.3,0,0.5-0.1,0.7-0.3    c0.2-0.2,0.3-0.4,0.3-0.7l0-4.1l5.5-7.6c0.1-0.3,0.1-0.6,0-0.9C225.6,162.2,225.3,162,224.9,162z" />
      <path
        d="M237.4,169.1L237.4,169.1c-0.5-0.3-1.1-0.6-1.7-0.8c-0.6-0.2-1.1-0.4-1.6-0.5c-0.5-0.2-1-0.3-1.4-0.5    c-0.4-0.1-0.8-0.3-1.1-0.5c-0.3-0.2-0.5-0.3-0.6-0.5c-0.1-0.1-0.2-0.4-0.2-0.6c0-0.4,0.2-0.8,0.6-1.1c0.5-0.3,1.2-0.5,2.1-0.5    c0.9,0,1.7,0.2,2.2,0.5c0.5,0.3,0.7,0.6,0.8,1c0,0.2,0.1,0.5,0.3,0.6c0.2,0.2,0.5,0.3,0.8,0.3h0.4c0.3,0,0.6-0.2,0.8-0.4    c0.2-0.3,0.2-0.6,0.2-0.7c0-0.6-0.2-1.1-0.5-1.6c-0.3-0.5-0.7-0.9-1.2-1.2c-0.5-0.3-1-0.5-1.7-0.7c-1.2-0.3-2.8-0.3-4.1,0    c-0.6,0.2-1.2,0.4-1.7,0.8c-0.5,0.4-0.8,0.8-1.1,1.3c-0.3,0.5-0.4,1.1-0.4,1.7c0,0.7,0.2,1.4,0.5,1.9c0.3,0.5,0.7,0.9,1.3,1.2    c0.5,0.3,1,0.6,1.6,0.8c0.5,0.2,1.1,0.4,1.6,0.5c0.5,0.2,1,0.3,1.5,0.5c0.4,0.1,0.8,0.3,1.1,0.5c0.3,0.2,0.5,0.3,0.6,0.6    c0.1,0.2,0.2,0.4,0.2,0.6c0,0.4-0.2,0.8-0.6,1.1c-0.5,0.3-1.2,0.5-2.2,0.5c-0.5,0-1,0-1.4-0.1c-0.4-0.1-0.7-0.2-1-0.4    c-0.3-0.1-0.5-0.3-0.6-0.5c-0.1-0.2-0.2-0.3-0.2-0.5c-0.1-0.5-0.4-0.9-1.1-1l-0.2,0c-0.2,0-0.6,0-0.9,0.4    c-0.3,0.3-0.3,0.7-0.3,0.8c0,0.6,0.2,1.1,0.6,1.6c0.3,0.5,0.7,0.8,1.2,1.2c0.5,0.3,1.1,0.5,1.7,0.7c0.6,0.2,1.3,0.2,2.1,0.2    c0.8,0,1.5-0.1,2.1-0.3c0.7-0.2,1.2-0.4,1.7-0.8c0.5-0.3,0.9-0.8,1.2-1.3c0.3-0.5,0.4-1.1,0.4-1.7c0-0.7-0.2-1.4-0.6-1.9    C238.3,169.9,237.9,169.5,237.4,169.1z" />
      <path
        d="M252.2,162h-9.5c-0.3,0-0.5,0.1-0.7,0.3c-0.2,0.2-0.3,0.4-0.3,0.7v0.4c0,0.3,0.1,0.5,0.3,0.7c0.2,0.2,0.5,0.3,0.7,0.3h3.5    V175c0,0.3,0.1,0.5,0.3,0.7c0.2,0.2,0.5,0.3,0.7,0.3h0.4c0.3,0,0.5-0.1,0.7-0.3c0.2-0.2,0.3-0.4,0.3-0.7v-10.6h3.5    c0.3,0,0.5-0.1,0.7-0.3c0.1-0.1,0.3-0.4,0.3-0.7V163c0-0.4-0.2-0.6-0.3-0.7C252.8,162.1,252.5,162,252.2,162z" />
      <path
        d="M265.8,162h-8.1c-0.3,0-0.5,0.1-0.7,0.3c-0.2,0.2-0.3,0.4-0.3,0.7v12c0,0.3,0.1,0.5,0.3,0.7c0.2,0.2,0.4,0.3,0.7,0.3h8.1    c0.3,0,0.5-0.1,0.7-0.3c0.2-0.2,0.3-0.4,0.3-0.7v-0.4c0-0.4-0.2-0.6-0.3-0.7c-0.2-0.2-0.5-0.3-0.7-0.3h-6.7v-3.3h5.5    c0.4,0,0.6-0.2,0.7-0.3c0.2-0.2,0.3-0.5,0.3-0.7V169c0-0.3-0.1-0.5-0.3-0.7c-0.2-0.2-0.5-0.3-0.7-0.3h-5.5v-3.5h6.7    c0.3,0,0.5-0.1,0.7-0.3c0.2-0.2,0.3-0.4,0.3-0.7V163c0-0.3-0.1-0.5-0.3-0.7C266.3,162.1,266.1,162,265.8,162z" />
      <path
        d="M284,162h-0.3c-0.5,0-0.9,0.2-1.1,0.6l-4.7,8l-4.7-7.9c-0.2-0.4-0.6-0.7-1.1-0.7h-0.3c-0.3,0-0.5,0.1-0.7,0.3    c-0.2,0.2-0.3,0.4-0.3,0.7v12c0,0.3,0.1,0.5,0.3,0.7c0.2,0.2,0.5,0.3,0.7,0.3h0.4c0.3,0,0.5-0.1,0.7-0.3c0.2-0.2,0.3-0.4,0.3-0.7    v-7.7l3.6,6c0.2,0.3,0.5,0.6,1.2,0.6c0.5,0,0.9-0.2,1.1-0.6l3.6-6.1v7.8c0,0.3,0.1,0.5,0.3,0.7c0.2,0.2,0.4,0.3,0.7,0.3h0.4    c0.3,0,0.5-0.1,0.7-0.3c0.2-0.2,0.3-0.4,0.3-0.7v-12c0-0.3-0.1-0.5-0.3-0.7C284.5,162.1,284.3,162,284,162z" />
    </g>
    <g>
      <path
        d="M306.2,124.2c-4.7,0-9.2-0.5-13.3-1.6c-4.2-1-7.8-2.6-11-4.6c-3.1-2-5.7-4.5-7.7-7.4c-2-2.9-3.1-6.3-3.5-10.2    c-0.1-0.8,0.2-1.5,0.8-2.1c0.6-0.6,1.3-0.9,2-0.9h14.5c1.2,0,2.1,0.2,2.6,0.5c0.5,0.4,1.1,1.1,1.7,2.3c0.8,1.4,2.3,2.7,4.5,3.8    c2.2,1.1,5.2,1.6,9,1.6c4,0,6.8-0.6,8.3-1.7c1.5-1.1,2.3-2.3,2.3-3.5c0-1.8-1.1-3.3-3.3-4.6c-2.2-1.3-5.9-2.8-11-4.5    c-3.4-1.1-6.9-2.3-10.5-3.8c-3.6-1.5-6.9-3.3-9.9-5.4c-3-2.1-5.5-4.8-7.5-7.8c-2-3.1-3-6.8-3-11.1c0-4,0.8-7.6,2.4-10.8    c1.6-3.2,3.9-5.9,6.8-8.2c2.9-2.3,6.4-4,10.4-5.2c4-1.2,8.4-1.8,13.2-1.8c4.9,0,9.3,0.6,13.4,1.8c4.1,1.2,7.6,2.9,10.6,5.2    c3,2.2,5.4,4.9,7.1,8c1.8,3.1,2.8,6.5,3.1,10.3c0.1,0.8-0.2,1.5-0.8,2.1c-0.6,0.6-1.3,0.9-2,0.9h-14.9c-1,0-1.8-0.2-2.3-0.7    c-0.5-0.5-1-1.2-1.3-2.2c-0.6-1.8-2-3.4-4-4.7c-2-1.4-4.9-2-8.4-2c-3.7,0-6.3,0.6-7.8,1.8c-1.6,1.2-2.4,2.5-2.4,3.9    c0,1.6,1.1,3,3.2,4.2c2.1,1.1,5.7,2.6,10.7,4.3c2.9,1,6.1,2.2,9.8,3.7c3.7,1.5,7.1,3.3,10.3,5.6c3.2,2.3,5.9,5,8.1,8.3    c2.2,3.3,3.3,7.2,3.3,11.8c0,4.1-0.8,7.7-2.5,10.8c-1.7,3.1-4,5.7-7,7.8c-3,2.1-6.5,3.7-10.5,4.7    C315.4,123.7,311,124.2,306.2,124.2z" />
      <path
        d="M260.7,88.5c-2.2-3.3-4.9-6-8.1-8.3c-3.2-2.3-6.6-4.1-10.3-5.6c-3.6-1.5-6.9-2.7-9.8-3.7c-5-1.7-8.6-3.1-10.7-4.3    c-2.1-1.1-3.2-2.5-3.2-4.2c0-1.4,0.8-2.7,2.4-3.9c1.6-1.2,4.2-1.8,7.8-1.8c3.6,0,6.4,0.7,8.4,2c2,1.4,3.4,2.9,4,4.7    c0.4,1,0.8,1.7,1.3,2.2c0.5,0.5,1.3,0.7,2.3,0.7H260c0.8,0,1.5-0.3,2-0.9c0.6-0.6,0.8-1.3,0.8-2.1c-0.3-3.7-1.3-7.1-3.1-10.3    c-1.8-3.1-4.1-5.8-7.1-8c-3-2.2-6.5-3.9-10.6-5.2c-4.1-1.2-8.6-1.8-13.4-1.8c-4.4,0-8.4,0.5-12.1,1.5c-0.7,8.9-7.2,16.1-15.7,17.9    l-4.5,11.3c0.5,2.3,1.3,4.4,2.5,6.3c2,3.1,4.5,5.7,7.5,7.8c3,2.1,6.3,4,9.9,5.4c3.6,1.5,7.1,2.7,10.5,3.8c5.1,1.7,8.7,3.2,11,4.5    c2.2,1.3,3.3,2.8,3.3,4.6c0,1.2-0.8,2.4-2.3,3.5c-1.5,1.1-4.3,1.7-8.3,1.7c-3.8,0-6.8-0.5-9-1.6c-2.2-1.1-3.7-2.3-4.5-3.8    c-0.6-1.1-1.2-1.9-1.7-2.3c-0.5-0.4-1.4-0.5-2.6-0.5H198c-0.8,0-1.5,0.3-2,0.9c-0.6,0.6-0.8,1.3-0.8,2.1c0.4,3.9,1.5,7.3,3.5,10.2    c2,2.9,4.5,5.4,7.7,7.4c3.1,2,6.8,3.5,11,4.6c4.1,1,8.6,1.6,13.3,1.6c4.8,0,9.2-0.5,13.3-1.6c4-1.1,7.6-2.6,10.5-4.7    c3-2.1,5.3-4.7,7-7.8c1.7-3.1,2.5-6.7,2.5-10.8C263.9,95.6,262.8,91.7,260.7,88.5z" />
      <path
        d="M74.9,104.4c4,0,7.6-0.9,10.8-2.6c3.2-1.8,5.9-4.1,7.9-7c0.9-1.5,2.2-1.9,3.8-1.2l14.9,6.5c0.6,0.2,1,0.7,1.2,1.3    c0.2,0.7,0.1,1.3-0.2,1.9c-1.9,3.3-4.2,6.3-6.9,9c-2.7,2.7-5.7,5-9,6.9c-3.3,1.9-6.9,3.4-10.7,4.4c-3.8,1-7.7,1.6-11.8,1.6    c-6,0-11.7-1.1-17.1-3.4c-5.4-2.3-10.1-5.4-14.2-9.3c-4-3.9-7.2-8.5-9.6-13.8c-2.4-5.3-3.5-10.9-3.5-16.9c0-6,1.2-11.6,3.5-16.9    c2.4-5.3,5.6-9.9,9.6-13.8c4-3.9,8.8-7,14.2-9.3c5.4-2.3,11.1-3.4,17.1-3.4c4.1,0,8,0.5,11.8,1.6c3.8,1,7.3,2.5,10.6,4.4    c3.3,1.9,6.2,4.2,9,6.8c2.7,2.6,5,5.6,7,8.8c0.4,0.6,0.4,1.2,0.2,1.9c-0.2,0.7-0.6,1.2-1.2,1.4l-14.8,6.5    c-0.7,0.4-1.4,0.4-2.1,0.3c-0.7-0.2-1.2-0.6-1.7-1.3c-2.1-2.9-4.7-5.3-8-7c-3.3-1.8-6.9-2.6-10.8-2.6c-3.1,0-6.1,0.6-8.9,1.8    c-2.8,1.2-5.2,2.8-7.2,4.8c-2.1,2-3.7,4.5-4.9,7.2c-1.2,2.8-1.8,5.8-1.8,8.9c0,3.2,0.6,6.1,1.8,8.9c1.2,2.8,2.8,5.2,4.9,7.2    c2.1,2,4.5,3.7,7.2,4.8C68.8,103.8,71.8,104.4,74.9,104.4z" />
      <path class="st1" d="M75.3,35.6" />
      <g>
        <path class="st2" d="M134.5,101.9" />
        <path
          d="M196.9,25c-7.3-0.2-13.3,5.6-13.5,12.8c-0.1,3.7,1.4,7.3,4.1,9.9L173,81.8l1.8,7.5l6.7-3.9L196,51.3c0.1,0,0.2,0,0.3,0     c7.3,0.2,13.3-5.6,13.5-12.8C210,31.2,204.2,25.2,196.9,25z M200.6,38.3c-0.1,2.2-1.9,3.9-4.1,3.9c-2.2-0.1-3.9-1.9-3.9-4.1     c0.1-2.2,1.9-3.9,4.1-3.9C198.9,34.2,200.7,36.1,200.6,38.3z" />
        <path class="st3"
          d="M164.4,91.9l-17.8,29.7l0.5,1.3c0.4,0.5,0.9,0.6,1.4,0.6v0h15.5c1.5,0,2.8-0.8,3.3-1.9l9.7-23.9     C172.6,96.2,168.4,94.3,164.4,91.9z" />
        <path class="st4" d="M147.7,77.2l-14.3,11.4l11.8,29.1l17.5-27C156.9,87.1,151.9,82.5,147.7,77.2z" />
        <path class="st5"
          d="M137.6,59.2c0-0.1-0.1-0.2-0.1-0.3l-14.2,5l8.9,22.1l14.1-10.5C142.6,70.6,139.7,65.1,137.6,59.2z" />
        <path class="st6" d="M134.3,45l-17.9,2l5.7,14.3l14.6-4.5C135.6,53,134.8,49.1,134.3,45z" />
        <path class="st7"
          d="M134,38.2c0-0.4,0-0.7,0-1.1l-18.9-0.4c-1.5,0-2.4,1-1.9,2.2l2.2,5.5l18.8-1.4C134,41.3,134,39.7,134,38.2z" />
      </g>
    </g>
  </g>
</svg>
